<?xml version="1.0" encoding="UTF-8" standalone="no"?>
<!-- Created with Inkscape (http://www.inkscape.org/) -->

<svg
   xmlns:dc="http://purl.org/dc/elements/1.1/"
   xmlns:cc="http://creativecommons.org/ns#"
   xmlns:rdf="http://www.w3.org/1999/02/22-rdf-syntax-ns#"
   xmlns:svg="http://www.w3.org/2000/svg"
   xmlns="http://www.w3.org/2000/svg"
   xmlns:sodipodi="http://sodipodi.sourceforge.net/DTD/sodipodi-0.dtd"
   xmlns:inkscape="http://www.inkscape.org/namespaces/inkscape"
   width="179.59653mm"
   height="52.895535mm"
   viewBox="0 0 636.36565 187.42512"
   id="svg2"
   version="1.1"
   inkscape:version="0.91 r13725"
   sodipodi:docname="Backdrop-Logo-Type.svg">
  <defs
     id="defs4" />
  <sodipodi:namedview
     id="base"
     pagecolor="#ffffff"
     bordercolor="#666666"
     borderopacity="1.0"
     inkscape:pageopacity="0.0"
     inkscape:pageshadow="2"
     inkscape:zoom="0.24748737"
     inkscape:cx="-1209.0868"
     inkscape:cy="730.73557"
     inkscape:document-units="px"
     inkscape:current-layer="surface4447"
     showgrid="false"
     fit-margin-top="0"
     fit-margin-left="0"
     fit-margin-right="0"
     fit-margin-bottom="0"
     inkscape:window-width="1920"
     inkscape:window-height="1027"
     inkscape:window-x="1912"
     inkscape:window-y="-8"
     inkscape:window-maximized="1" />
  <metadata
     id="metadata7">
    <rdf:RDF>
      <cc:Work
         rdf:about="">
        <dc:format>image/svg+xml</dc:format>
        <dc:type
           rdf:resource="http://purl.org/dc/dcmitype/StillImage" />
        <dc:title></dc:title>
      </cc:Work>
    </rdf:RDF>
  </metadata>
  <g
     inkscape:label="Layer 1"
     inkscape:groupmode="layer"
     id="layer1"
     transform="translate(-2018.5858,-839.10063)">
    <g
       id="surface4447"
       transform="matrix(1.25,0,0,1.25,-237.10379,160.92352)">
      <g
         transform="matrix(1,0,0,-1,1746.8642,724.25169)"
         inkscape:label="ink_ext_XXXXXX"
         id="g4204">
        <g
           transform="scale(0.1,0.1)"
           id="g4206">
          <path
             inkscape:connector-curvature="0"
             id="path4208"
             style="fill:#100f0d;fill-opacity:1;fill-rule:nonzero;stroke:none"
             d="m 874.836,708.559 c 155.384,0 267.514,144.171 267.514,352.431 0,189.03 -67.28,329.99 -243.487,329.99 -76.89,0 -160.191,-44.85 -251.508,-126.55 l 0,-456.551 c 84.907,-72.09 168.208,-99.32 227.481,-99.32 m -297.961,1108.531 70.48,0 0,-333.2 -3.199,-150.57 c 78.496,65.67 171.407,120.15 265.918,120.15 205.046,0 307.566,-153.8 307.566,-392.48 0,-261.119 -158.59,-414.9 -339.609,-414.9 -73.679,0 -158.59,35.25 -230.676,91.308 l -3.199,0 -8.011,-72.089 -59.27,0 0,1151.781" />
          <path
             inkscape:connector-curvature="0"
             id="path4210"
             style="fill:#100f0d;fill-opacity:1;fill-rule:nonzero;stroke:none"
             d="m 1507.58,706.961 c 88.11,0 166.6,43.25 261.11,124.949 l 0,261.12 c -315.57,-36.85 -422.9,-110.53 -422.9,-232.28 0,-110.539 73.68,-153.789 161.79,-153.789 m 261.11,440.529 c 3.21,116.94 -30.43,243.49 -181.01,243.49 -104.13,0 -193.84,-51.26 -245.1,-89.7 l -32.04,52.86 c 54.47,38.45 160.2,99.32 285.15,99.32 182.62,0 243.49,-131.36 243.49,-296.36 l 0,-491.791 -59.27,0 -8.01,99.32 -3.21,0 C 1690.2,702.16 1597.29,646.09 1496.37,646.09 c -121.75,0 -224.27,65.68 -224.27,211.449 0,169.811 155.38,251.511 496.59,289.951" />
          <path
             inkscape:connector-curvature="0"
             id="path4212"
             style="fill:#100f0d;fill-opacity:1;fill-rule:nonzero;stroke:none"
             d="m 2276.49,1453.46 c 105.73,0 174.61,-46.46 225.87,-94.51 l -41.65,-49.66 c -49.66,46.45 -107.33,81.69 -182.61,81.69 -157,0 -278.73,-139.36 -278.73,-342.81 0,-201.842 110.52,-339.611 278.73,-339.611 81.69,0 152.18,40.05 205.04,88.113 l 36.85,-48.063 c -65.67,-59.257 -147.38,-102.519 -245.1,-102.519 -198.64,0 -349.22,147.379 -349.22,402.08 0,257.91 163.39,405.29 350.82,405.29" />
          <path
             inkscape:connector-curvature="0"
             id="path4214"
             style="fill:#100f0d;fill-opacity:1;fill-rule:nonzero;stroke:none"
             d="m 2616.08,1817.1 70.49,0 0,-849.022 3.21,0 379.65,466.162 81.7,0 -249.9,-304.37 291.54,-464.561 -78.48,0 -254.71,411.701 -173.01,-201.838 0,-209.863 -70.49,0 0,1151.791" />
          <path
             inkscape:connector-curvature="0"
             id="path4216"
             style="fill:#100f0d;fill-opacity:1;fill-rule:nonzero;stroke:none"
             d="m 3480.53,708.559 c 84.9,0 160.19,44.863 241.89,126.562 l 0,456.539 c -81.7,72.09 -148.98,99.32 -224.28,99.32 -153.77,0 -270.72,-148.97 -270.72,-342.81 0,-203.44 89.71,-339.611 253.11,-339.611 m 12.82,744.911 c 92.91,0 155.38,-35.26 232.27,-94.52 l -3.2,140.97 0,317.17 70.49,0 0,-1151.781 -60.88,0 -6.41,99.332 -4.8,0 C 3658.34,702.16 3573.44,646.09 3470.92,646.09 c -193.84,0 -318.78,142.558 -318.78,402.08 0,248.31 158.59,405.3 341.21,405.3" />
          <path
             inkscape:connector-curvature="0"
             id="path4218"
             style="fill:#100f0d;fill-opacity:1;fill-rule:nonzero;stroke:none"
             d="m 3898.61,1434.24 60.87,0 6.42,-142.57 4.8,0 c 51.26,94.51 126.56,161.79 217.86,161.79 28.83,0 51.26,-3.2 76.9,-16.02 l -16.03,-64.07 c -25.62,9.61 -40.04,12.81 -70.47,12.81 -68.88,0 -150.58,-52.86 -209.87,-197.03 l 0,-523.841 -70.48,0 0,768.931" />
          <path
             inkscape:connector-curvature="0"
             id="path4220"
             style="fill:#100f0d;fill-opacity:1;fill-rule:nonzero;stroke:none"
             d="m 4587.42,708.559 c 155.39,0 272.34,137.781 272.34,339.611 0,203.45 -116.95,342.81 -272.34,342.81 -155.39,0 -270.73,-139.36 -270.73,-342.81 0,-201.83 115.34,-339.611 270.73,-339.611 m 0,744.911 c 185.82,0 346.03,-147.38 346.03,-405.3 0,-254.701 -160.21,-402.08 -346.03,-402.08 -184.22,0 -344.4,147.379 -344.4,402.08 0,257.92 160.18,405.3 344.4,405.3" />
          <path
             inkscape:connector-curvature="0"
             id="path4222"
             style="fill:#100f0d;fill-opacity:1;fill-rule:nonzero;stroke:none"
             d="m 5325,708.559 c 155.38,0 267.52,144.171 267.52,352.431 0,189.03 -67.29,329.99 -243.5,329.99 -76.88,0 -158.59,-44.85 -251.5,-126.55 l 0,-456.551 c 88.11,-72.09 168.2,-99.32 227.48,-99.32 m -227.48,-110.52 0,-280.34 -70.49,0 0,1116.531 60.87,0 6.42,-96.1 4.8,0 c 75.29,59.26 166.6,115.34 261.11,115.34 205.05,0 307.57,-153.8 307.57,-392.48 0,-261.119 -158.58,-414.9 -339.61,-414.9 -72.08,0 -150.57,35.25 -230.67,94.519 l 0,-142.57" />
        </g>
      </g>
    </g>
  </g>
</svg>
