<?xml version="1.0" encoding="UTF-8" standalone="no"?>
<!-- Created with Inkscape (http://www.inkscape.org/) -->

<svg
   xmlns:dc="http://purl.org/dc/elements/1.1/"
   xmlns:cc="http://creativecommons.org/ns#"
   xmlns:rdf="http://www.w3.org/1999/02/22-rdf-syntax-ns#"
   xmlns:svg="http://www.w3.org/2000/svg"
   xmlns="http://www.w3.org/2000/svg"
   xmlns:sodipodi="http://sodipodi.sourceforge.net/DTD/sodipodi-0.dtd"
   xmlns:inkscape="http://www.inkscape.org/namespaces/inkscape"
   width="179.68472mm"
   height="237.96487mm"
   viewBox="0 0 636.67815 843.18262"
   id="svg2"
   version="1.1"
   inkscape:version="0.91 r13725"
   sodipodi:docname="Backdrop-Logo-Vertical.svg">
  <defs
     id="defs4" />
  <sodipodi:namedview
     id="base"
     pagecolor="#ffffff"
     bordercolor="#666666"
     borderopacity="1.0"
     inkscape:pageopacity="0.0"
     inkscape:pageshadow="2"
     inkscape:zoom="0.24748737"
     inkscape:cx="99.201721"
     inkscape:cy="1071.5147"
     inkscape:document-units="px"
     inkscape:current-layer="surface4447"
     showgrid="false"
     fit-margin-top="0"
     fit-margin-left="0"
     fit-margin-right="0"
     fit-margin-bottom="0"
     inkscape:window-width="1920"
     inkscape:window-height="1027"
     inkscape:window-x="1912"
     inkscape:window-y="-8"
     inkscape:window-maximized="1" />
  <metadata
     id="metadata7">
    <rdf:RDF>
      <cc:Work
         rdf:about="">
        <dc:format>image/svg+xml</dc:format>
        <dc:type
           rdf:resource="http://purl.org/dc/dcmitype/StillImage" />
        <dc:title></dc:title>
      </cc:Work>
    </rdf:RDF>
  </metadata>
  <g
     inkscape:label="Layer 1"
     inkscape:groupmode="layer"
     id="layer1"
     transform="translate(-710.29727,-524.12227)">
    <g
       id="surface4447"
       transform="matrix(1.25,0,0,1.25,-237.10379,160.92352)">
      <g
         transform="matrix(1,0,0,-1,711.98335,1013.559)"
         inkscape:label="ink_ext_XXXXXX"
         id="g4242">
        <g
           transform="scale(0.1,0.1)"
           id="g4244">
          <path
             inkscape:connector-curvature="0"
             id="path4246"
             style="fill:#100f0d;fill-opacity:1;fill-rule:nonzero;stroke:none"
             d="m 460,7230 0,-5090 2550,0 0,2550 2540,0 0,2540 -5090,0" />
          <path
             inkscape:connector-curvature="0"
             id="path4248"
             style="fill:#100f0d;fill-opacity:1;fill-rule:nonzero;stroke:none"
             d="m 5550,2140 0,2544.85 L 3005.44,2140 5550,2140 Z" />
          <path
             inkscape:connector-curvature="0"
             id="path4250"
             style="fill:#100f0d;fill-opacity:1;fill-rule:nonzero;stroke:none"
             d="m 757.336,875.41 c 155.391,0 267.514,144.17 267.514,352.42 0,189.03 -67.276,330 -243.487,330 -76.89,0 -160.191,-44.84 -251.508,-126.55 l 0,-456.538 c 84.907,-72.09 168.208,-99.332 227.481,-99.332 m -297.961,1108.53 70.48,0 0,-333.2 -3.199,-150.58 c 78.496,65.68 171.407,120.15 265.918,120.15 205.047,0 307.566,-153.79 307.566,-392.48 0,-261.1 -158.585,-414.889 -339.609,-414.889 -73.679,0 -158.59,35.239 -230.676,91.321 l -3.199,0 -8.011,-72.09 -59.27,0 0,1151.768" />
          <path
             inkscape:connector-curvature="0"
             id="path4252"
             style="fill:#100f0d;fill-opacity:1;fill-rule:nonzero;stroke:none"
             d="m 1390.08,873.809 c 88.11,0 166.6,43.25 261.11,124.953 l 0,261.118 c -315.57,-36.85 -422.9,-110.54 -422.9,-232.28 0,-110.541 73.68,-153.791 161.79,-153.791 m 261.11,440.521 c 3.21,116.95 -30.43,243.5 -181.01,243.5 -104.13,0 -193.84,-51.26 -245.1,-89.71 l -32.04,52.87 c 54.47,38.45 160.2,99.32 285.15,99.32 182.62,0 243.49,-131.37 243.49,-296.37 l 0,-491.78 -59.27,0 -8.01,99.32 -3.21,0 c -78.49,-62.468 -171.4,-118.539 -272.32,-118.539 -121.75,0 -224.27,65.68 -224.27,211.449 0,169.81 155.38,251.51 496.59,289.94" />
          <path
             inkscape:connector-curvature="0"
             id="path4254"
             style="fill:#100f0d;fill-opacity:1;fill-rule:nonzero;stroke:none"
             d="m 2158.99,1620.31 c 105.73,0 174.61,-46.46 225.87,-94.51 l -41.65,-49.66 c -49.66,46.45 -107.33,81.69 -182.61,81.69 -157,0 -278.73,-139.36 -278.73,-342.81 0,-201.84 110.52,-339.61 278.73,-339.61 81.69,0 152.18,40.051 205.04,88.11 l 36.85,-48.059 c -65.67,-59.27 -147.38,-102.52 -245.1,-102.52 -198.64,0 -349.22,147.379 -349.22,402.079 0,257.91 163.39,405.29 350.82,405.29" />
          <path
             inkscape:connector-curvature="0"
             id="path4256"
             style="fill:#100f0d;fill-opacity:1;fill-rule:nonzero;stroke:none"
             d="m 2498.58,1983.94 70.49,0 0,-849.01 3.21,0 379.65,466.15 81.7,0 -249.9,-304.36 291.54,-464.56 -78.48,0 -254.71,411.7 -173.01,-201.84 0,-209.86 -70.49,0 0,1151.78" />
          <path
             inkscape:connector-curvature="0"
             id="path4258"
             style="fill:#100f0d;fill-opacity:1;fill-rule:nonzero;stroke:none"
             d="m 3363.03,875.41 c 84.9,0 160.19,44.852 241.89,126.55 l 0,456.55 c -81.7,72.09 -148.98,99.32 -224.28,99.32 -153.77,0 -270.72,-148.97 -270.72,-342.81 0,-203.45 89.71,-339.61 253.11,-339.61 m 12.82,744.9 c 92.91,0 155.38,-35.24 232.27,-94.52 l -3.2,140.98 0,317.17 70.49,0 0,-1151.768 -60.88,0 -6.41,99.308 -4.8,0 C 3540.84,869 3455.94,812.941 3353.42,812.941 c -193.84,0 -318.78,142.571 -318.78,402.079 0,248.3 158.59,405.29 341.21,405.29" />
          <path
             inkscape:connector-curvature="0"
             id="path4260"
             style="fill:#100f0d;fill-opacity:1;fill-rule:nonzero;stroke:none"
             d="m 3781.11,1601.08 60.87,0 6.42,-142.57 4.8,0 c 51.26,94.52 126.56,161.8 217.86,161.8 28.83,0 51.26,-3.2 76.9,-16.02 l -16.03,-64.08 c -25.62,9.61 -40.04,12.82 -70.47,12.82 -68.88,0 -150.58,-52.87 -209.87,-197.04 l 0,-523.83 -70.48,0 0,768.92" />
          <path
             inkscape:connector-curvature="0"
             id="path4262"
             style="fill:#100f0d;fill-opacity:1;fill-rule:nonzero;stroke:none"
             d="m 4469.92,875.41 c 155.39,0 272.34,137.77 272.34,339.61 0,203.45 -116.95,342.81 -272.34,342.81 -155.39,0 -270.73,-139.36 -270.73,-342.81 0,-201.84 115.34,-339.61 270.73,-339.61 m 0,744.9 c 185.82,0 346.03,-147.38 346.03,-405.29 0,-254.707 -160.21,-402.079 -346.03,-402.079 -184.22,0 -344.4,147.372 -344.4,402.079 0,257.91 160.18,405.29 344.4,405.29" />
          <path
             inkscape:connector-curvature="0"
             id="path4264"
             style="fill:#100f0d;fill-opacity:1;fill-rule:nonzero;stroke:none"
             d="m 5210,875.41 c 155.38,0 267.52,144.17 267.52,352.42 0,189.03 -67.29,330 -243.5,330 -76.88,0 -158.58,-44.84 -251.5,-126.55 l 0,-456.538 c 88.11,-72.09 168.2,-99.332 227.48,-99.332 m -227.48,-110.531 0,-280.34 -70.49,0 0,1116.541 60.87,0 6.42,-96.11 4.8,0 c 75.29,59.28 166.6,115.34 261.11,115.34 205.05,0 307.57,-153.79 307.57,-392.48 0,-261.1 -158.58,-414.889 -339.61,-414.889 -72.08,0 -150.57,35.239 -230.67,94.508 l 0,-142.57" />
        </g>
      </g>
    </g>
  </g>
</svg>
