<?xml version="1.0" encoding="UTF-8" standalone="no"?>
<!-- Created with Inkscape (http://www.inkscape.org/) -->

<svg
   xmlns:dc="http://purl.org/dc/elements/1.1/"
   xmlns:cc="http://creativecommons.org/ns#"
   xmlns:rdf="http://www.w3.org/1999/02/22-rdf-syntax-ns#"
   xmlns:svg="http://www.w3.org/2000/svg"
   xmlns="http://www.w3.org/2000/svg"
   xmlns:sodipodi="http://sodipodi.sourceforge.net/DTD/sodipodi-0.dtd"
   xmlns:inkscape="http://www.inkscape.org/namespaces/inkscape"
   width="240.61649mm"
   height="54.232693mm"
   viewBox="0 0 852.5781 192.16308"
   id="svg2"
   version="1.1"
   inkscape:version="0.91 r13725"
   sodipodi:docname="Backdrop-Logo-Horizontal_Invert.svg">
  <defs
     id="defs4" />
  <sodipodi:namedview
     id="base"
     pagecolor="#ffffff"
     bordercolor="#666666"
     borderopacity="1.0"
     inkscape:pageopacity="0.0"
     inkscape:pageshadow="2"
     inkscape:zoom="0.70710678"
     inkscape:cx="802.76539"
     inkscape:cy="267.33325"
     inkscape:document-units="px"
     inkscape:current-layer="surface4447"
     showgrid="false"
     fit-margin-top="0"
     fit-margin-left="0"
     fit-margin-right="0"
     fit-margin-bottom="0"
     inkscape:window-width="1920"
     inkscape:window-height="1027"
     inkscape:window-x="1912"
     inkscape:window-y="-8"
     inkscape:window-maximized="1" />
  <metadata
     id="metadata7">
    <rdf:RDF>
      <cc:Work
         rdf:about="">
        <dc:format>image/svg+xml</dc:format>
        <dc:type
           rdf:resource="http://purl.org/dc/dcmitype/StillImage" />
        <dc:title></dc:title>
      </cc:Work>
    </rdf:RDF>
  </metadata>
  <g
     inkscape:label="Layer 1"
     inkscape:groupmode="layer"
     id="layer1"
     transform="translate(163.43191,-213.42352)">
    <g
       id="surface4447"
       transform="matrix(1.25,0,0,1.25,-237.10379,160.92352)">
      <path
         id="path4139"
         d="m 88.734375,156.64453 c 15.539065,0 26.750005,-14.41797 26.750005,-35.24219 0,-18.90234 -6.72657,-32.999996 -24.347661,-32.999996 -7.6875,0 -16.019531,4.484375 -25.152344,12.656246 l 0,45.65235 c 8.492188,7.21093 16.820313,9.93359 22.75,9.93359 M 58.9375,45.789063 l 7.046875,0 0,33.320312 -0.320312,15.058594 c 7.851562,-6.566406 17.140625,-12.015625 26.59375,-12.015625 20.503907,0 30.757817,15.378906 30.757817,39.249996 0,26.10938 -15.85938,41.48828 -33.960942,41.48828 -7.371094,0 -15.859375,-3.52343 -23.070313,-9.1289 l -0.320312,0 -0.800782,7.20703 -5.925781,0 0,-115.179687"
         style="fill:#f0f3f3;fill-opacity:1;fill-rule:nonzero;stroke:none"
         inkscape:connector-curvature="0" />
      <path
         id="path4141"
         d="m 152.00781,156.80469 c 8.8125,0 16.66016,-4.32422 26.10938,-12.4961 l 0,-26.11328 c -31.55469,3.6875 -42.28907,11.05469 -42.28907,23.23047 0,11.05469 7.36719,15.37891 16.17969,15.37891 M 178.11719,112.75 c 0.32422,-11.69141 -3.04297,-24.347656 -18.09766,-24.347656 -10.41406,0 -19.38672,5.125 -24.51172,8.96875 l -3.20312,-5.285156 c 5.44531,-3.84375 16.01953,-9.933594 28.51562,-9.933594 18.26172,0 24.34766,13.136719 24.34766,29.636716 l 0,49.17969 -5.92578,0 -0.80078,-9.93359 -0.32422,0 c -7.84766,6.25 -17.13672,11.85546 -27.23047,11.85546 -12.17578,0 -22.42578,-6.5664 -22.42578,-21.14453 0,-16.98046 15.53515,-25.15234 49.65625,-28.99609"
         style="fill:#f0f3f3;fill-opacity:1;fill-rule:nonzero;stroke:none"
         inkscape:connector-curvature="0" />
      <path
         id="path4143"
         d="m 228.89844,82.152344 c 10.57422,0 17.46093,4.648437 22.58593,9.453125 l -4.16406,4.964844 c -4.96484,-4.644532 -10.73047,-8.167969 -18.26172,-8.167969 -15.69922,0 -27.87109,13.937496 -27.87109,34.281246 0,20.1836 11.05078,33.96094 27.87109,33.96094 8.17188,0 15.21875,-4.00391 20.50391,-8.8125 l 3.6875,4.80859 c -6.56641,5.92579 -14.73828,10.25 -24.51172,10.25 -19.86328,0 -34.92187,-14.73828 -34.92187,-40.20703 0,-25.792965 16.33984,-40.531246 35.08203,-40.531246"
         style="fill:#f0f3f3;fill-opacity:1;fill-rule:nonzero;stroke:none"
         inkscape:connector-curvature="0" />
      <path
         id="path4145"
         d="m 262.85937,45.789063 7.04688,0 0,84.902347 0.32031,0 37.96485,-46.617191 8.17187,0 -24.99219,30.441411 29.15625,46.45312 -7.84765,0 -25.47266,-41.16797 -17.30078,20.18359 0,20.98438 -7.04688,0 0,-115.179687"
         style="fill:#f0f3f3;fill-opacity:1;fill-rule:nonzero;stroke:none"
         inkscape:connector-curvature="0" />
      <path
         id="path4147"
         d="m 349.30469,156.64453 c 8.48828,0 16.01562,-4.48828 24.1875,-12.65625 l 0,-45.652342 c -8.17188,-7.210938 -14.89844,-9.933594 -22.42578,-9.933594 -15.37891,0 -27.07422,14.898436 -27.07422,34.281246 0,20.34375 8.97265,33.96094 25.3125,33.96094 m 1.28125,-74.492186 c 9.28906,0 15.53515,3.527344 23.22656,9.453125 l -0.32031,-14.097656 0,-31.71875 7.04687,0 0,115.179687 -6.08594,0 -0.64062,-9.93359 -0.48047,0 c -6.24609,6.25 -14.73828,11.85546 -24.98828,11.85546 -19.38672,0 -31.87891,-14.2539 -31.87891,-40.20703 0,-24.832027 15.85938,-40.531246 34.1211,-40.531246"
         style="fill:#f0f3f3;fill-opacity:1;fill-rule:nonzero;stroke:none"
         inkscape:connector-curvature="0" />
      <path
         id="path4149"
         d="m 391.10937,84.074219 6.08985,0 0.64062,14.257812 0.48047,0 c 5.125,-9.449218 12.65625,-16.179687 21.78516,-16.179687 2.88281,0 5.125,0.320312 7.6914,1.605469 l -1.60546,6.40625 c -2.5586,-0.960938 -4.00391,-1.28125 -7.04688,-1.28125 -6.88672,0 -15.05469,5.285156 -20.98437,19.703127 l 0,52.38281 -7.05079,0 0,-76.894531"
         style="fill:#f0f3f3;fill-opacity:1;fill-rule:nonzero;stroke:none"
         inkscape:connector-curvature="0" />
      <path
         id="path4151"
         d="m 459.99219,156.64453 c 15.53906,0 27.23437,-13.77734 27.23437,-33.96094 0,-20.34375 -11.69531,-34.281246 -27.23437,-34.281246 -15.53907,0 -27.07422,13.937496 -27.07422,34.281246 0,20.1836 11.53515,33.96094 27.07422,33.96094 m 0,-74.492186 c 18.58203,0 34.60156,14.738281 34.60156,40.531246 0,25.46875 -16.01953,40.20703 -34.60156,40.20703 -18.42188,0 -34.44141,-14.73828 -34.44141,-40.20703 0,-25.792965 16.01953,-40.531246 34.44141,-40.531246"
         style="fill:#f0f3f3;fill-opacity:1;fill-rule:nonzero;stroke:none"
         inkscape:connector-curvature="0" />
      <path
         id="path4153"
         d="m 534,156.64453 c 15.53906,0 26.75391,-14.41797 26.75391,-35.24219 0,-18.90234 -6.73047,-32.999996 -24.35157,-32.999996 -7.6875,0 -15.85937,4.484375 -25.14843,12.656246 l 0,45.65235 c 8.80859,7.21093 16.8164,9.93359 22.74609,9.93359 m -22.74609,11.05078 0,28.03516 -7.05079,0 0,-111.652345 6.08594,0 0.64453,9.609375 0.47657,0 c 7.53125,-5.925781 16.66015,-11.535156 26.11328,-11.535156 20.5039,0 30.75781,15.378906 30.75781,39.249996 0,26.10938 -15.85938,41.48828 -33.96094,41.48828 -7.21094,0 -15.05859,-3.52343 -23.0664,-9.45312 l 0,14.25781"
         style="fill:#f0f3f3;fill-opacity:1;fill-rule:nonzero;stroke:none"
         inkscape:connector-curvature="0" />
      <path
         inkscape:connector-curvature="0"
         style="fill:#0f0c0c;fill-opacity:1;fill-rule:nonzero;stroke:none"
         d="m 679.73694,103.54556 0,61.41406 61.27344,-61.41406 z"
         id="path5592-8" />
      <path
         style="fill:#f0f3f3;fill-opacity:1;fill-rule:nonzero;stroke:none"
         d="m 740.99688,165 0,-61.41406 L 679.72343,165 Z"
         id="path5592"
         inkscape:connector-curvature="0" />
      <path
         style="fill:#0f0c0c;fill-opacity:1;fill-rule:nonzero;stroke:none"
         d="M 741,165"
         id="path4155" />
      <path
         style="fill:#f0f3f3;fill-opacity:1;fill-rule:nonzero;stroke:none"
         d="m 618,42 0,123 62,0 0,-61 61,0 0,-62 -123,0"
         id="path4157" />
    </g>
  </g>
</svg>
