<?xml version="1.0" encoding="UTF-8" standalone="no"?>
<!-- Created with Inkscape (http://www.inkscape.org/) -->

<svg
   xmlns:dc="http://purl.org/dc/elements/1.1/"
   xmlns:cc="http://creativecommons.org/ns#"
   xmlns:rdf="http://www.w3.org/1999/02/22-rdf-syntax-ns#"
   xmlns:svg="http://www.w3.org/2000/svg"
   xmlns="http://www.w3.org/2000/svg"
   xmlns:sodipodi="http://sodipodi.sourceforge.net/DTD/sodipodi-0.dtd"
   xmlns:inkscape="http://www.inkscape.org/namespaces/inkscape"
   width="88.778374mm"
   height="76.953682mm"
   viewBox="0 0 314.56904 272.67053"
   id="svg2"
   version="1.1"
   inkscape:version="0.91 r13725"
   sodipodi:docname="Drop_paw.svg">
  <defs
     id="defs4" />
  <sodipodi:namedview
     id="base"
     pagecolor="#ffffff"
     bordercolor="#666666"
     borderopacity="1.0"
     inkscape:pageopacity="0.0"
     inkscape:pageshadow="2"
     inkscape:zoom="0.24748737"
     inkscape:cx="-1459.2053"
     inkscape:cy="802.31528"
     inkscape:document-units="px"
     inkscape:current-layer="surface4447"
     showgrid="false"
     fit-margin-top="0"
     fit-margin-left="0"
     fit-margin-right="0"
     fit-margin-bottom="0"
     inkscape:window-width="1920"
     inkscape:window-height="1027"
     inkscape:window-x="1912"
     inkscape:window-y="-8"
     inkscape:window-maximized="1" />
  <metadata
     id="metadata7">
    <rdf:RDF>
      <cc:Work
         rdf:about="">
        <dc:format>image/svg+xml</dc:format>
        <dc:type
           rdf:resource="http://purl.org/dc/dcmitype/StillImage" />
        <dc:title></dc:title>
      </cc:Work>
    </rdf:RDF>
  </metadata>
  <g
     inkscape:label="Layer 1"
     inkscape:groupmode="layer"
     id="layer1"
     transform="translate(-2268.7043,-825.43492)">
    <g
       id="surface4447"
       transform="matrix(1.25,0,0,1.25,-237.10379,160.92352)">
      <g
         transform="matrix(1,0,0,-1,2004.6467,749.74512)"
         inkscape:label="ink_ext_XXXXXX"
         id="g4321">
        <g
           transform="scale(0.1,0.1)"
           id="g4323">
          <path
             inkscape:connector-curvature="0"
             id="path4325"
             style="fill:#4f4c4c;fill-opacity:1;fill-rule:nonzero;stroke:none"
             d="m 1271.66,1112.98 c 0,0 128.59,-114.671 373.41,-331.261 -117.73,293.051 365.19,90.133 365.19,90.133 -205.12,291.748 506.29,-2.012 506.29,-2.012 0,0 -846.33,467.38 -1040.63,429.71 -194.32,-37.67 -319.39,-256.17 -319.39,-256.17 l 115.13,69.6" />
          <path
             inkscape:connector-curvature="0"
             id="path4327"
             style="fill:#100f0d;fill-opacity:1;fill-rule:nonzero;stroke:none"
             d="m 2402.29,630.559 c -13.96,68.339 -59.23,131.941 -132.38,141.722 -21.75,2.891 -48.14,7 -69.95,4.258 -32.52,-4.098 -65.03,-18.117 -91.51,-37.25 -13.78,-9.957 -25.57,-22.098 -34.33,-36.687 -8.28,-13.77 -19.57,-35.063 -20.89,-51.27 -2.96,-36.723 19.06,-84.5 52.71,-101.723 20.74,-10.609 64,-9.527 73.94,16.403 5.89,15.297 -4.23,33.789 -6.79,48.968 0.09,-0.468 7.69,-44.359 -27.57,-45.019 -11.29,-0.199 -22.06,8.898 -28.65,16.988 -19,23.321 -28.38,55.27 -15.18,83.442 21.64,46.269 79.14,64.781 127.27,56.129 7.41,-1.329 13.89,-3.36 20.48,-6.95 27.09,-14.75 49.05,-29.648 64.17,-57.23 15.05,-27.442 21.18,-58.649 20.19,-89.758 -0.47,-14.242 -0.55,-29.523 -5.04,-43.172 -4.23,-12.851 -12.34,-24.101 -18.79,-35.879 -3.15,-5.761 -6.59,-10.859 -10.69,-15.922 -20.71,-25.418 -43.08,-42.14 -73.15,-55.437 -53.85,-23.793 -116.73,-28.051 -174.77,-29.07 -111.09,-1.993 -224.4,70.32 -314.4,148.929 l -35.24,48.688 c -6.68,8.57 -13.45,17.011 -20.36,25.293 l -36.83,42.109 c -6.28,6.84 -12.65,13.617 -19.04,20.258 l -54.92,53.793 c -6.77,6.269 -13.62,12.418 -20.43,18.469 l -54.06,45.738 c -7.65,6.16 -15.29,12.191 -22.89,18.09 l -50.51,37.703 c -9.58,6.867 -19.12,13.547 -28.46,19.976 l -58.2,38.383 c -13.43,8.43 -26.29,16.34 -38.6,23.688 l -45.49,26.293 c -19.5,10.898 -43.65,18.707 -65.5,30.289 13.28,18.699 26.66,40.509 37.84,64.879 37.56,81.73 424.41,-305.231 420.8,-273.961 -3.59,31.25 -393.26,332.581 -293.86,365.701 48.09,3.73 621.1,-258.182 657.27,-274.729 -36.56,16.758 -618.74,285.169 -580.01,353.539 60.19,158.89 1088.08,-356.39 1088.08,-356.39 0,0 -731.42,441.44 -1007.87,458.43 12.5,15.32 30.19,35.93 51.95,58.42 37.81,39.1 -144.82,-68.24 -144.82,-68.24 l 0.27,-0.08 c -143.08,-33.96 -242.72,-136.83 -291.03,-197.85 -5.58,129.19 81.52,293.78 137.13,406.55 167.68,-59.05 443.74,-151.18 297.51,-63.8 -172.58,103.1 -193.51,123.11 -259.54,223.05 0.23,0.32 0.45,0.63 0.74,0.96 7.91,5.38 124.88,-90.24 124.88,-90.24 0,0 10.78,-6.4 10.4,4 -3.11,31.41 -115.83,115.3 -123.31,120.53 -7.48,5.22 -8.03,15.31 -8.03,15.31 0,0 42.46,7.06 71.58,4.05 24.52,-3.43 31.63,6.22 31.5,10.56 -0.12,4.3 -4.96,17.91 -13.77,18.23 -8.8,0.32 -70.23,9.63 -81.64,8.98 -11.39,-0.68 -23.6,9.6 -23.6,9.6 0,0 12.24,4.16 26.26,-0.1 13.96,-4.23 51.18,-3.47 58.55,-3.39 7.35,0.07 10.69,7.15 8.16,12.37 -2.61,5.21 -61.69,26.06 -70.04,26.25 -8.34,0.17 -42.01,1.16 -42.7,5.06 -0.69,3.9 0.89,4.92 0.89,4.92 0,0 31.94,15.86 64.15,16.76 32.17,0.87 18.74,-1.24 11.31,13.51 -5.04,5.64 -71.08,-6.43 -79.41,-7.18 -8.3,-0.77 -19.76,-0.08 -19.59,2.96 0.17,3.02 18.03,4.83 15.61,6.87 -2.44,2.01 -13.28,1.92 -21.59,11.04 -6.96,7.61 -13.54,21.95 -23.37,27.88 -3.17,8.32 -36.89,48.85 -74.99,52.33 -38.12,3.49 -138.6,-11.53 -203.781,48.31 -20.703,34.25 -53.171,40.06 -113.398,37.63 -19.973,42.44 -38.098,97.56 -23.406,137.84 -46.379,-3.7 -53.352,-85.61 -52.414,-143.79 -42.879,-4.73 -75.657,-10.3 -75.657,-10.3 0,0 13.84,-21.72 34.446,-48.64 -13.36,5.53 -22.649,8.98 -22.649,8.98 0,0 0.981,-21.48 5.188,-45.43 l -90.598,-96.06 96.234,39.65 -46.875,-126.11 91.395,115.62 c 12.578,-0.19 24.902,3.34 35.859,9.8 -5.195,-8.25 -27.254,-27.98 -22.578,-34.05 6.914,1.52 26.946,24.97 29.512,15.46 2.566,-9.53 -20.613,-22.72 -15.82,-56.51 11.945,31.71 19.757,31.09 19.757,31.09 0,0 8.668,6.31 6.317,-5.79 -2.356,-12.1 -22.981,-41.74 -5.469,-64.04 3.652,48.47 18.047,40.33 18.047,40.33 0,0 6.941,3.71 5.77,-2.33 -1.161,-6.05 -9.215,-62.29 -3.133,-64.62 6.054,-2.33 11.66,35.15 22.636,29.92 10.938,-5.25 -4.89,-62.32 1.465,-62.34 6.367,-0.02 13.711,38.91 30.086,20.66 5.539,-14.5 -8.609,-58.26 -3.711,-60 4.907,-1.76 16.575,33.71 27.239,25.87 3.781,-2.62 -12.676,-60.84 -7.735,-62.31 4.895,-1.46 11.309,22.75 20.852,21.83 5.484,-2.32 -10.039,-51.6 -3.684,-52.48 6.367,-0.9 9.309,22.47 16.25,18.96 6.934,-3.48 6.25,-17.32 12.637,-17.34 6.34,-0.03 4.875,-2.61 1.633,-18.49 -3.227,-15.85 -21.45,-21.25 -18,-31.09 17.297,2.26 30.593,3.92 30.593,3.92 0,0 -39.421,-42.25 -35.984,-48.3 5.066,-0.35 30.09,17.16 30.09,17.16 l -91.379,-100.13 c 0,0 -60.684,-56.04 -74.797,-70.44 -89.742,-80.33 -170.23,-189.73 -182.461,-421.309 1.633,-57.172 15.949,-129.492 31.008,-176.922 0,0 -32.988,-28.41 -47.727,-29.269 -14.753,-0.86 -227.628,151.679 -255.796,181.421 -29.133,30.75 -57.164,69.571 -86.875,91.649 -29.668,22.11 -95.672,9.43 -122.731,8.58 -0.91,-0.3 -1.894,-0.75 -2.8202,-1.1 -17.5781,2.44 -46.2344,-15.648 -69.8242,-45.59 -27.88285,-35.41 -38.05082,-73.89 -22.69926,-86 5.76176,-4.531 14.31246,-4.699 24.19536,-1.25 -0.4727,-22.281 6.6836,-39.742 19.7695,-43.628 11.8086,-3.52 25.6289,4.859 36.8516,20.429 6.4257,-14.281 15.9612,-23.359 26.6722,-23.402 15.98,-0.059 29.57,19.98 34.047,47.543 8.484,4.769 17.109,11.387 25.152,19.629 13.43,-46.391 68.902,-28.281 68.902,-28.281 l 78.348,-63.668 c 0,0 164.039,-158.383 204.973,-188.192 40.941,-29.82 66.488,-42.558 91.73,-33.012 13.809,5.243 24.414,14.891 32.258,25.75 l 30.41,28.512 c 26.617,-37.281 57.742,-70.558 92.312,-100.148 -40.402,-97.973 -120.468,-281.571 -168.527,-321.981 -25.508,1.039 -49.258,-1.109 -69.644,-5.582 -18.02,13.301 -57.02,34.039 -76.875,-17.09 0,0 -36.789,63.262 -66.77,11.27 -29.98,-52 -21.387,-89.981 -6.566,-109.3985 11.742,-15.4102 25.449,1 30.632,8.4605 -3.148,-5.703 -7.293,-17.9293 5.754,-29.4527 10.028,-8.8477 20.368,-2.5586 27.481,4.5937 1.312,-4.8125 5.683,-11.5937 15.625,-21.1406 8.262,-7.9297 24.012,0.4102 41.16,12.2305 2.18,0.4101 4.383,0.8984 6.598,1.457 0.468,-4.1406 1.789,-7.9375 4.089,-11.2773 12.125,-17.5625 46.379,-14.9727 76.504,5.8398 13.352,9.207 23.664,20.4805 29.934,31.6876 66.289,0.492 118.457,22.152 120.09,51.82 0.515,9.36 -4.184,18.442 -12.738,26.801 6.601,13.551 -7.704,44.309 -8.211,58.359 -0.672,19.551 98.144,161.723 147.375,235.93 40.894,-23.34 99.929,-53.879 143.986,-71.051 37.32,-103.109 130.45,-199.34 258.64,-254.238 -25.84,-1.871 -41.69,-0.879 -51.34,0.691 -23.4,10.149 -54.1,17.219 -88.06,19.118 -0.23,0 -0.44,-0.02 -0.67,0.023 l -3.95,6.09 c 0,0 -71.01,69.316 -102.13,-10.863 0,0 -43.5,74.793 -78.937,13.32 -35.461,-61.438 -25.293,-106.3673 -7.778,-129.3399 13.891,-18.1993 30.11,1.1992 36.235,10 -3.723,-6.7071 -8.633,-21.1875 6.785,-34.7969 11.855,-10.4727 24.085,-3.0508 32.475,5.4492 1.56,-5.7031 6.73,-13.7305 18.49,-25.01952 9.02,-8.67188 25.62,-0.83985 44.08,11.41012 13.92,-14.05075 45.73,-10.51169 73.9,8.9375 9.45,6.5196 17.36,14.0625 23.41,21.8789 33.93,-12.539 118.71,15.9532 118.71,15.9532 0,0 86.99,6.0195 96.93,11.1797 9.92,5.1289 48.57,9.9804 42.08,34.4297 160.94,-15.4688 305.5,48.918 355.74,172.598 3.75,9.203 7.15,22.32 9.94,34.882 73.77,-27.441 162.05,-47.421 261.7,-45.961 302.95,4.418 349.07,256.411 349.07,256.43 1.84,10.059 1.32,20.699 1.42,30.86 0.25,24.531 -2.21,50.25 -7.12,74.289" />
          <path
             inkscape:connector-curvature="0"
             id="path4329"
             style="fill:#4f4c4c;fill-opacity:1;fill-rule:nonzero;stroke:none"
             d="m 1171.77,1810.67 c 0,-55.04 -44.61,-99.65 -99.65,-99.65 -55.04,0 -99.659,44.61 -99.659,99.65 0,55.04 44.619,99.65 99.659,99.65 55.04,0 99.65,-44.61 99.65,-99.65" />
          <path
             inkscape:connector-curvature="0"
             id="path4331"
             style="fill:#100f0d;fill-opacity:1;fill-rule:nonzero;stroke:none"
             d="m 2010.26,871.852 c 0,0 -0.6,0.296 -1.78,0.839 1.18,-0.543 1.78,-0.839 1.78,-0.839" />
          <path
             inkscape:connector-curvature="0"
             id="path4333"
             style="fill:#ffffff;fill-opacity:1;fill-rule:nonzero;stroke:none"
             d="m 1163.33,1826.42 c -0.19,-48.07 -41.18,-86.86 -91.57,-86.66 -50.39,0.2 -91.057,39.32 -90.862,87.39 0.188,48.04 41.162,86.88 91.542,86.67 50.41,-0.2 91.09,-39.36 90.89,-87.4" />
          <path
             inkscape:connector-curvature="0"
             id="path4335"
             style="fill:#100f0d;fill-opacity:1;fill-rule:nonzero;stroke:none"
             d="m 1071.45,1847.18 c -0.09,-20.23 -16.59,-36.59 -36.81,-36.51 -20.26,0.08 -36.62,16.56 -36.542,36.81 0.078,20.25 16.562,36.61 36.832,36.52 20.22,-0.08 36.59,-16.56 36.52,-36.82" />
          <path
             inkscape:connector-curvature="0"
             id="path4337"
             style="fill:#4f4c4c;fill-opacity:1;fill-rule:nonzero;stroke:none"
             d="m 1882.43,554.629 c -31.01,1.359 -30.29,-128.949 -30.29,-128.949 l 79.27,-35.059 c 0,0 -51.62,123.07 -48.98,164.008" />
          <path
             inkscape:connector-curvature="0"
             id="path4339"
             style="fill:#4f4c4c;fill-opacity:1;fill-rule:nonzero;stroke:none"
             d="m 2013.63,472.191 c -28.59,-13.543 -0.41,-99.261 -0.41,-99.261 l 86.88,-0.328 c 0,0 -82.88,64.839 -86.47,99.589" />
          <path
             inkscape:connector-curvature="0"
             id="path4341"
             style="fill:#4f4c4c;fill-opacity:1;fill-rule:nonzero;stroke:none"
             d="m 2145.18,469.18 c -18.64,-7.371 -0.39,-94.282 -0.39,-94.282 l 62.17,31.993 c 0,0 -53.2,36.211 -61.78,62.289" />
          <path
             inkscape:connector-curvature="0"
             id="path4343"
             style="fill:#4f4c4c;fill-opacity:1;fill-rule:nonzero;stroke:none"
             d="m 759.617,1175.16 c -40.23,2.66 -80,11.46 -118.816,22.66 -13.77,-29.32 -25.645,-62.26 -35.117,-99.7 41.711,-3.86 81.308,-6.09 122.531,-12.29 8.008,30.34 18.379,60.19 31.402,89.33" />
          <path
             inkscape:connector-curvature="0"
             id="path4345"
             style="fill:#4f4c4c;fill-opacity:1;fill-rule:nonzero;stroke:none"
             d="m 721.633,1058.42 c -40.481,-9.08 -82.524,-4.41 -125.078,-1.95 -6.02,-32.14 -10.317,-67.4 -12.746,-106.04 37.214,-16.782 79.726,-21.078 123.32,-25.321 0.5,44.95 5.098,89.581 14.504,133.311" />
          <path
             inkscape:connector-curvature="0"
             id="path4347"
             style="fill:#4f4c4c;fill-opacity:1;fill-rule:nonzero;stroke:none"
             d="m 837.5,1301.71 c -30.625,15.35 -61.406,27.24 -94.551,38.07 -29.023,-28.44 -56.504,-60.87 -80.281,-100.77 37.52,-11.03 77,-16.6 115.293,-26.76 16.57,30.84 36.394,60.72 59.539,89.46" />
          <path
             inkscape:connector-curvature="0"
             id="path4349"
             style="fill:#4f4c4c;fill-opacity:1;fill-rule:nonzero;stroke:none"
             d="m 819.797,1412.38 c -18.984,-17.65 -45.527,-42.49 -54.277,-51.38 -0.52,-0.46 -1.028,-0.95 -1.543,-1.42 35.957,-7.63 76.445,-7.09 107.39,-19.29 6.465,6.75 13.074,13.46 19.973,20.05 35.64,35.34 -18.117,42.86 -71.543,52.04" />
          <path
             inkscape:connector-curvature="0"
             id="path4351"
             style="fill:#4f4c4c;fill-opacity:1;fill-rule:nonzero;stroke:none"
             d="m 615.625,761.789 35.508,38.5 -47.695,6.172 12.187,-44.672 z" />
          <path
             inkscape:connector-curvature="0"
             id="path4353"
             style="fill:#4f4c4c;fill-opacity:1;fill-rule:nonzero;stroke:none"
             d="m 707.273,899.57 c -40.164,0.489 -81.96,2.262 -122.546,9.61 2.043,-26.508 5.734,-51.84 10.898,-76.121 23.621,-13.18 47.402,-15.5 72.004,-15.289 l 41.473,44.98 c -0.911,12.289 -1.551,24.551 -1.829,36.82" />
          <path
             inkscape:connector-curvature="0"
             id="path4355"
             style="fill:#4f4c4c;fill-opacity:1;fill-rule:nonzero;stroke:none"
             d="m 779.109,581.441 -24.91,-22.632 18.574,-17.047 95.911,-67.473 31.004,-17.16 -2.793,19.551 c 0,0 -113.602,93.789 -117.786,104.761" />
          <path
             inkscape:connector-curvature="0"
             id="path4357"
             style="fill:#4f4c4c;fill-opacity:1;fill-rule:nonzero;stroke:none"
             d="m 763.645,599.121 c -1.418,12.91 -4.375,26.188 -9.192,39.859 -5.715,17.372 -10.832,34.899 -15.586,52.52 l -23.613,-18.73 -34.387,-32.211 c 23.051,-31.809 49.367,-60.739 78.352,-86.848 0.078,0.059 0.136,0.098 0.207,0.148 l -22.629,21.332 26.848,23.93" />
        </g>
      </g>
    </g>
  </g>
</svg>
