<?xml version="1.0" encoding="UTF-8" standalone="no"?>
<!-- Created with Inkscape (http://www.inkscape.org/) -->

<svg
   xmlns:dc="http://purl.org/dc/elements/1.1/"
   xmlns:cc="http://creativecommons.org/ns#"
   xmlns:rdf="http://www.w3.org/1999/02/22-rdf-syntax-ns#"
   xmlns:svg="http://www.w3.org/2000/svg"
   xmlns="http://www.w3.org/2000/svg"
   xmlns:sodipodi="http://sodipodi.sourceforge.net/DTD/sodipodi-0.dtd"
   xmlns:inkscape="http://www.inkscape.org/namespaces/inkscape"
   width="44.882938mm"
   height="68.341797mm"
   viewBox="0 0 159.03403 242.15598"
   id="svg2"
   version="1.1"
   inkscape:version="0.91 r13725"
   sodipodi:docname="Drop_seated.svg">
  <defs
     id="defs4" />
  <sodipodi:namedview
     id="base"
     pagecolor="#ffffff"
     bordercolor="#666666"
     borderopacity="1.0"
     inkscape:pageopacity="0.0"
     inkscape:pageshadow="2"
     inkscape:zoom="0.24748737"
     inkscape:cx="-1573.6376"
     inkscape:cy="781.97192"
     inkscape:document-units="px"
     inkscape:current-layer="surface4447"
     showgrid="false"
     fit-margin-top="0"
     fit-margin-left="0"
     fit-margin-right="0"
     fit-margin-bottom="0"
     inkscape:window-width="1920"
     inkscape:window-height="1027"
     inkscape:window-x="1912"
     inkscape:window-y="-8"
     inkscape:window-maximized="1" />
  <metadata
     id="metadata7">
    <rdf:RDF>
      <cc:Work
         rdf:about="">
        <dc:format>image/svg+xml</dc:format>
        <dc:type
           rdf:resource="http://purl.org/dc/dcmitype/StillImage" />
        <dc:title></dc:title>
      </cc:Work>
    </rdf:RDF>
  </metadata>
  <g
     inkscape:label="Layer 1"
     inkscape:groupmode="layer"
     id="layer1"
     transform="translate(-2383.1366,-835.6061)">
    <g
       id="surface4447"
       transform="matrix(1.25,0,0,1.25,-237.10379,160.92352)">
      <g
         transform="matrix(1,0,0,-1,2096.1923,733.47131)"
         inkscape:label="ink_ext_XXXXXX"
         id="g4386">
        <g
           transform="scale(0.1,0.1)"
           id="g4388">
          <path
             inkscape:connector-curvature="0"
             id="path4390"
             style="fill:#100f0d;fill-opacity:1;fill-rule:nonzero;stroke:none"
             d="m 1272.23,1408.13 c -28.96,-15.14 -72.43,-6.96 -106.5,3.9 -4.2,45.76 -11.85,69.72 -39.79,81.93 -51.76,43.28 -50.45,120.72 -56.91,149.2 -6.46,28.45 -40.46,49.86 -47.06,51.43 -5.45,6.83 -16.96,10.37 -23.411,14.87 -7.735,5.36 -8.731,13.57 -10.496,15.21 -1.79,1.62 -1.379,-12.05 -3.625,-12.49 -2.305,-0.44 -3.954,8.17 -4.208,14.51 -0.273,6.37 2.254,57.49 -2.531,60.74 -11.894,4.14 -11.64,14.49 -9.082,-9.91 2.559,-24.43 -6.25,-50.16 -6.25,-50.16 0,0 -0.574,-1.3 -3.621,-1.16 -3.019,0.14 -7.129,25.48 -8.086,31.75 -0.996,6.3 -22.648,48.87 -26.847,50.31 -4.208,1.41 -9.227,-1.82 -8.524,-7.39 0.645,-5.58 3.809,-33.78 8.406,-43.92 4.621,-10.15 2.715,-19.84 2.715,-19.84 0,0 -9.012,8.21 -9.637,16.88 -0.644,8.7 -13.847,54.19 -14.933,60.81 -1.141,6.63 -11.922,8.93 -15.164,8.58 -3.301,-0.33 -9.875,-6.68 -4.836,-24.86 5.176,-21.7 4.113,-54.51 4.113,-54.51 0,0 -7.695,-0.59 -12.383,4.55 -4.687,5.13 -79.394,81.92 -103.437,81.14 -7.891,-0.77 -1.992,-8.27 -1.992,-8.27 0,0 83.992,-78.84 80.711,-85.36 -0.223,-0.25 -0.438,-0.46 -0.645,-0.67 -82.156,39.91 -99.363,53.74 -194.555,173.85 -75.14,94.8 4.082,-71.71 64.918,-192.64 -10.058,-0.74 -20.527,-3.31 -31.406,-8.43 -116.976,-55 -249.062,-116.14 -369.851,-247.29 C 178.574,1310.26 186.492,931.66 186.492,931.66 l -0.078,-184.359 -24.226,-80.879 c -14.829,-3.07 -25.747,-12.66 -25.747,-24.16 0,-13.961 15.981,-25.262 35.676,-25.262 0.988,0 1.906,0.129 2.867,0.199 6.532,-5.109 15.868,-8.39 26.368,-8.39 10.406,0 19.699,3.222 26.211,8.25 0.363,0 0.683,-0.059 1.046,-0.059 19.696,0 35.676,11.301 35.676,25.262 0,10.039 -8.312,18.609 -20.265,22.699 l 6.742,121.391 c 2.906,-2.551 5.902,-5.012 9.078,-7.293 14.305,-74.899 80.703,-194.207 103.558,-241.559 -14.851,6.559 -40.632,12.871 -63.886,-6.77 -35.18,-29.742 67.398,-84.742 110.508,-101.101 43.109,-16.34 115.793,-125.699 171.793,-114.457 19.101,3.828 28.23,13.558 32.132,24.687 36.039,-23.289 76.645,-34.648 118.383,-30.238 6.926,0.719 16.145,2.949 24.817,5.379 7.421,-54.578 24.246,-115.672 58.054,-176.691 C 917.984,-47.1992 1088.73,7.53906 1088.73,7.55859 c 6.83,2.16016 13.22,6.01951 19.51,9.30081 15.24,7.9609 30.29,17.9804 43.53,28.9297 37.56,31.2109 61.86,80.1209 43.73,128.4999 -5.41,14.391 -11.58,32.031 -20.46,44.582 -13.29,18.719 -32.68,34.141 -53.21,44.18 -10.71,5.23 -22.09,8.48 -33.98,9.078 -11.24,0.562 -28.11,0.492 -38.56,-4.039 -23.62,-10.289 -45.86,-39.68 -45.37,-66.129 0.3,-16.313 15.26,-42.652 34.54,-40.211 11.39,1.422 19.46,13.75 27.99,20.34 -0.25,-0.199 -24.82,-19.391 -36.88,2.172 -3.86,6.898 -1.81,16.558 1.02,23.289 8.11,19.429 24.74,35.769 46.48,36.918 35.7,1.922 66.11,-27.457 76.68,-60.02 1.62,-5 2.5,-9.668 2.46,-14.91 -0.14,-21.609 -2.09,-40.07 -14.13,-58.519 -11.96,-18.3481 -29.19,-32.4184 -48.73,-42.1098 -8.94,-4.4102 -18.39,-9.3985 -28.32,-11.1211 -9.31,-1.6485 -18.95,-0.3477 -28.34,-0.2696 -4.59,0.0508 -8.86,0.4922 -13.35,1.3321 -22.52,4.3867 -40.231,12.6875 -58.363,26.8593 -32.481,25.3791 -55.872,62.7771 -75.657,98.2691 -32.871,58.86 -31.824,137.161 -18.699,210.079 8.055,-5.387 20.184,-9.2 38.32,-7.528 48.133,4.457 34.754,49.047 20.633,74.321 26.016,31.218 24.524,52.027 17.09,148.668 -1.953,25.308 -10.008,43.25 -20.762,56.14 -3.855,35.399 -57.05,124.051 -57.558,139.149 -1.973,57.492 -61.434,142.714 -109.012,176.418 -47.57,33.713 -87.047,103.573 -71.359,152.633 11.379,35.56 24.172,245.95 78.066,316.91 l 1.184,-8.24 c 0,0 -10.723,-20.64 -9.953,-24.46 4.933,-1.98 32.89,32.03 32.89,32.03 0,0 0.07,-10.21 0.11,-23.49 7.793,-1.63 10.046,12.69 21.699,16.69 11.687,4.06 13.476,5.41 14.121,0.62 0.652,-4.81 11.055,-2.92 14.383,-7.82 3.34,-4.88 -14.032,-9.45 -12.703,-14.16 1.296,-4.73 37,11.95 39.296,8.04 1.649,-7.14 -16.007,-14.41 -14.425,-17.95 1.601,-3.6 43.976,14.67 46.32,12.07 6.992,-7.26 -18.633,-19.65 -16.816,-23.16 1.804,-3.53 33.464,11.53 44.988,8.8 15.422,-10.56 -13.262,-19.99 -12.617,-24.8 0.656,-4.81 42.207,12.86 47.277,5.12 5.039,-7.77 -22.746,-15.76 -20.371,-20.1 2.363,-4.37 44.082,7.35 48.543,8.84 4.433,1.48 2.324,-4.12 2.324,-4.12 0,0 7.617,-10.08 -28.691,-17.68 18.632,-11.01 38.972,7.55 47.872,10.54 8.93,2.99 5,-4.2 5,-4.2 0,0 1.25,-5.85 -21.513,-18.04 26.043,-0.24 33.663,18.61 41.113,17.61 7.46,-1 -8.27,-18.47 -8.71,-23.86 5.07,-2.91 17.74,15.73 23.48,20.49 -3.8,-8.93 -5.22,-18.61 -3.83,-28.09 l -78.225,-80.66 90.635,48.07 -20.37,-76.7 63.54,78.08 c 18.52,-0.78 34.85,0.64 34.85,0.64 0,0 -3.56,6.65 -9.04,16.21 22.4,-12.89 40.21,-21.17 40.21,-21.17 0,0 0.93,25.32 0.21,58.21 44.07,5.11 105.29,18.58 103.41,54" />
          <path
             inkscape:connector-curvature="0"
             id="path4392"
             style="fill:#4f4c4c;fill-opacity:1;fill-rule:nonzero;stroke:none"
             d="m 955.055,1650.83 c -41.621,-5.5 -70.871,-43.68 -65.364,-85.28 5.5,-41.6 43.664,-70.86 85.293,-65.36 41.606,5.52 70.846,43.71 65.316,85.3 -5.48,41.6 -43.675,70.86 -85.245,65.34" />
          <path
             inkscape:connector-curvature="0"
             id="path4394"
             style="fill:#ffffff;fill-opacity:1;fill-rule:nonzero;stroke:none"
             d="m 967.777,1646.02 c -36.297,-4.94 -61.523,-39.81 -56.328,-77.87 5.188,-38.06 38.821,-64.87 75.129,-59.92 36.302,4.95 61.552,39.81 56.342,77.86 -5.2,38.07 -38.85,64.9 -75.143,59.93" />
          <path
             inkscape:connector-curvature="0"
             id="path4396"
             style="fill:#100f0d;fill-opacity:1;fill-rule:nonzero;stroke:none"
             d="m 1001.25,1607.46 c -15.309,-2.08 -26.039,-16.2 -23.922,-31.47 2.07,-15.32 16.192,-26.03 31.472,-23.93 15.29,2.08 26.02,16.18 23.93,31.49 -2.09,15.26 -16.17,26 -31.48,23.91" />
          <path
             inkscape:connector-curvature="0"
             id="path4398"
             style="fill:#4f4c4c;fill-opacity:1;fill-rule:nonzero;stroke:none"
             d="m 933.219,341.559 c -9.406,19.613 -89.59,-23.879 -89.59,-23.879 l 4.531,-60.508 c 0,0 58.926,72.488 85.059,84.387" />
          <path
             inkscape:connector-curvature="0"
             id="path4400"
             style="fill:#4f4c4c;fill-opacity:1;fill-rule:nonzero;stroke:none"
             d="M 925.668,233.359 C 907.875,246.531 864.281,200.84 864.281,200.84 l 28.477,-53.731 c 0,0 12.637,72.571 32.91,86.25" />
          <path
             inkscape:connector-curvature="0"
             id="path4402"
             style="fill:#4f4c4c;fill-opacity:1;fill-rule:nonzero;stroke:none"
             d="m 908.941,120.289 40.282,-27.8085 c 0,0 4.757,44.7895 18.027,58.7105 -10.711,9.079 -58.309,-30.902 -58.309,-30.902" />
          <path
             inkscape:connector-curvature="0"
             id="path4404"
             style="fill:#4f4c4c;fill-opacity:1;fill-rule:nonzero;stroke:none"
             d="M 209.703,1368.8 C 98.3086,1266.91 0,536.121 0,536.121 c 0,0 143.375,569.259 228.852,311.008 0,0 148.168,291.661 274.195,86.41 -21.414,248.381 -86.262,475.581 -86.262,475.581 l 94.949,38.92 c 0,0 -190.644,22.69 -302.031,-79.24" />
          <path
             inkscape:connector-curvature="0"
             id="path4406"
             style="fill:#4f4c4c;fill-opacity:1;fill-rule:nonzero;stroke:none"
             d="m 1051.45,457.82 c 0,0 -98.329,730.81 -209.708,832.69 -111.375,101.94 -302.031,79.25 -302.031,79.25 l 94.941,-38.92 c 0,0 -64.863,14.43 -67.918,-450.309 C 692.75,1085.8 822.582,768.852 822.582,768.852 908.063,1027.09 1051.45,457.82 1051.45,457.82" />
          <path
             inkscape:connector-curvature="0"
             id="path4408"
             style="fill:#100f0d;fill-opacity:1;fill-rule:nonzero;stroke:none"
             d="m 478.809,1502.39 c -59.317,-1.86 -167.625,-16.18 -253.454,-88.35 l 0.083,0.17 c 0,0 -148.7544,-63.08 -107.618,-57.69 23.649,3.12 44.332,4.56 59.407,5.27 C 62.0156,1184.73 0,536.121 0,536.121 c 0,0 151.492,863.769 276.168,828.429 59.473,-7.33 -42.715,-492.331 -49.066,-522.37 1.515,7.14 6.503,-28.328 16.429,17.218 31.524,144.492 97.676,495.552 116.024,516.652 65.48,45.86 72.945,-329.78 90.472,-346.17 17.493,-16.41 -43.738,396.4 23.391,382.24 20.035,-4.22 39.465,-5.94 56.953,-6.26 l -51.562,96.53" />
          <path
             inkscape:connector-curvature="0"
             id="path4410"
             style="fill:#100f0d;fill-opacity:1;fill-rule:nonzero;stroke:none"
             d="m 775.277,1286.27 c 124.68,35.33 276.173,-828.45 276.173,-828.45 0,0 -62.02,648.63 -177.227,825.68 15.07,-0.7 35.742,-2.14 59.386,-5.27 C 974.75,1272.85 826,1335.92 826,1335.92 l 0.09,-0.16 c -85.832,72.17 -194.141,86.49 -253.453,88.34 l -51.578,-96.53 c 17.5,0.33 36.929,2.05 56.964,6.26 67.129,14.17 5.903,-398.639 23.395,-382.225 17.523,16.387 25.004,392.025 90.473,346.165 24.121,-27.75 124.101,-497.75 130.418,-527.45 -1.563,7.289 12.675,-38.558 3.742,8.399 -27.988,146.601 -95.813,502.001 -50.774,507.551" />
        </g>
      </g>
    </g>
  </g>
</svg>
