<?xml version="1.0" encoding="UTF-8" standalone="no"?>
<!-- Created with Inkscape (http://www.inkscape.org/) -->

<svg
   xmlns:dc="http://purl.org/dc/elements/1.1/"
   xmlns:cc="http://creativecommons.org/ns#"
   xmlns:rdf="http://www.w3.org/1999/02/22-rdf-syntax-ns#"
   xmlns:svg="http://www.w3.org/2000/svg"
   xmlns="http://www.w3.org/2000/svg"
   xmlns:sodipodi="http://sodipodi.sourceforge.net/DTD/sodipodi-0.dtd"
   xmlns:inkscape="http://www.inkscape.org/namespaces/inkscape"
   width="87.551544mm"
   height="44.782181mm"
   viewBox="0 0 310.22201 158.67702"
   id="svg2"
   version="1.1"
   inkscape:version="0.91 r13725"
   sodipodi:docname="Drop_lounging_White.svg">
  <defs
     id="defs4" />
  <sodipodi:namedview
     id="base"
     pagecolor="#ffffff"
     bordercolor="#666666"
     borderopacity="1.0"
     inkscape:pageopacity="0.0"
     inkscape:pageshadow="2"
     inkscape:zoom="1.979899"
     inkscape:cx="289.3435"
     inkscape:cy="-61.908998"
     inkscape:document-units="px"
     inkscape:current-layer="surface4447"
     showgrid="false"
     fit-margin-top="0"
     fit-margin-left="0"
     fit-margin-right="0"
     fit-margin-bottom="0"
     inkscape:window-width="1920"
     inkscape:window-height="1027"
     inkscape:window-x="1912"
     inkscape:window-y="-8"
     inkscape:window-maximized="1" />
  <metadata
     id="metadata7">
    <rdf:RDF>
      <cc:Work
         rdf:about="">
        <dc:format>image/svg+xml</dc:format>
        <dc:type
           rdf:resource="http://purl.org/dc/dcmitype/StillImage" />
        <dc:title></dc:title>
      </cc:Work>
    </rdf:RDF>
  </metadata>
  <g
     inkscape:label="Layer 1"
     inkscape:groupmode="layer"
     id="layer1"
     transform="translate(-2312.8517,-835.41805)">
    <g
       id="surface4447"
       transform="matrix(1.25,0,0,1.25,-237.10379,160.92352)">
      <path
         inkscape:connector-curvature="0"
         id="path4290"
         style="fill:#b0b3b3;fill-opacity:1;fill-rule:nonzero;stroke:none"
         d="m 2086.8472,614.70156 c -2.4465,-0.0593 -3.4797,6.8418 -3.4797,6.8418 l 5.9875,3.0453 c 0,0 -3.4687,-7.3617 -2.5078,-9.8871" />
      <path
         inkscape:connector-curvature="0"
         id="path4292"
         style="fill:#b0b3b3;fill-opacity:1;fill-rule:nonzero;stroke:none"
         d="m 2095.8249,619.20666 c -2.3664,-0.1301 -3.5722,6.5203 -3.5722,6.5203 l 5.7051,3.125 c 0,0 -3.1387,-7.2285 -2.1329,-9.6453" />
      <path
         inkscape:connector-curvature="0"
         id="path4294"
         style="fill:#b0b3b3;fill-opacity:1;fill-rule:nonzero;stroke:none"
         d="m 2076.5027,614.32776 4.2207,4.9238 c 0,0 0.4844,-9.9715 1.982,-12.6511 -2.0496,-1.0918 -6.2027,7.7273 -6.2027,7.7273" />
      <path
         inkscape:connector-curvature="0"
         id="path4296"
         style="fill:#ffffff;fill-opacity:1;fill-rule:nonzero;stroke:none"
         d="m 2287.3333,634.62856 c -0.088,-6.1152 -9.482,-11.1981 -22.609,-13.0488 0.029,-0.2157 0.062,-0.4297 0.086,-0.6465 4.236,-28.3778 -16.293,-50.1594 -16.293,-50.1594 16.656,-6.2135 43.75,-16.8335 26.926,-14.1675 -19.854,3.145 -22.743,2.949 -34.217,-0.49 0,-0.039 -0.01,-0.077 0,-0.12 0.262,-0.921 15.369,-1.077 15.369,-1.077 0,0 1.236,-0.201 0.543,-0.974 -2.252,-2.211 -16.281,-1.427 -17.191,-1.35 -0.911,0.08 -1.598,-0.66 -1.598,-0.66 0,0 2.809,-3.263 5.236,-4.898 2.098,-1.308 2.03,-2.504 1.741,-2.83 -0.284,-0.322 -1.53,-1.056 -2.227,-0.517 -0.693,0.54 -6.01,3.762 -6.842,4.544 -0.83,0.782 -2.428,0.775 -2.428,0.775 0,0 0.676,-1.103 2.022,-1.675 1.344,-0.569 4.152,-3.013 4.715,-3.493 0.558,-0.476 0.359,-1.233 -0.168,-1.471 -0.533,-0.234 -6.406,1.953 -7.059,2.473 -0.652,0.521 -3.299,2.603 -3.601,2.347 -0.303,-0.255 -0.246,-0.433 -0.246,-0.433 0,0 1.435,-3.266 3.847,-5.398 2.414,-2.129 1.518,-1.106 0,-1.762 -0.75,-0.11 -5.045,5.049 -5.635,5.64 -0.59,0.592 -1.513,1.273 -1.693,1.029 -0.182,-0.243 1.072,-1.528 0.758,-1.528 -0.319,0.001 -1.145,0.704 -2.367,0.536 -1.225,-0.166 -9.036,-4.083 -15.864,2.648 -5.254,3.435 -6.504,6.935 -15.338,7.269 -3.166,-1.167 -6.877,-0.086 -11.345,3.96 -4.252,-1.978 -9.176,-5.047 -10.629,-9.08 -3.324,3.256 1.39,9.991 5.191,14.397 -2.988,3.111 -5.146,5.6399 -5.146,5.6399 0,0 2.453,0.7793 5.761,1.5258 -1.38,0.4308 -2.314,0.7621 -2.314,0.7621 0,0 1.451,1.5863 3.309,3.1547 l -0.797,13.1792 4.845,-9.2105 4.485,12.6852 -0.395,-14.734 c 0.977,-0.7899 1.698,-1.8516 2.125,-3.0496 0.129,0.9652 -0.299,3.8949 0.448,4.0609 0.435,-0.5602 0.468,-3.6434 1.275,-3.0781 0.807,0.5676 -0.127,3.0652 2.406,5.3508 -1.113,-3.1989 -0.474,-3.6516 -0.474,-3.6516 0,0 0.259,-1.0398 0.855,0.0391 0.594,1.08 0.912,4.6765 3.686,5.2668 -2.827,-3.9547 -1.202,-4.2528 -1.202,-4.2528 0,0 0.297,-0.7293 0.594,-0.1926 0.299,0.5403 3.285,5.3739 3.901,5.1629 0.615,-0.2097 -1.356,-3.4472 -0.18,-3.748 1.176,-0.2973 3.617,5.0976 4.107,4.6914 0.492,-0.4055 -1.441,-3.8652 0.987,-3.5129 1.353,0.757 3.072,5.0238 3.562,4.8418 0.486,-0.1773 -0.889,-3.648 0.432,-3.7305 0.457,-0.041 2.926,5.4828 3.398,5.2793 0.471,-0.2019 -0.59,-2.4722 0.201,-3.0133 0.571,-0.1742 2.536,4.6051 3.082,4.2657 0.545,-0.3391 -0.726,-2.3227 0.032,-2.4985 0.756,-0.1754 1.589,0.9297 2.082,0.5239 0.488,-0.4067 0.541,-0.1125 1.31,1.3125 0.768,1.4246 -0.285,3.0078 0.61,3.541 1.183,-1.2805 2.099,-2.2641 2.099,-2.2641 0,0 -0.32,5.7727 0.334,6.0168 0.412,-0.2976 1.207,-3.2461 1.207,-3.2461 0,0 0.473,1.3723 0.936,3.2383 -3.106,1.5547 -5.848,3.6863 -8.084,6.282 -1.908,-0.2976 -3.848,-0.5535 -5.815,-0.7617 -25.619,-2.7098 -53.727,2.7055 -64.995,13.166 -11.5042,7.9914 -25.6116,14.9192 -38.5159,13.2699 -6.7773,-0.8656 -14.0769,-2.1718 -20.0691,-5.6476 -3.3481,-1.9402 -5.7492,-4.1848 -7.8457,-7.4238 -0.416,-0.6446 -0.7512,-1.2879 -1.0461,-2 -0.6028,-1.4602 -1.4074,-2.8797 -1.7364,-4.4383 -0.3496,-1.6535 -0.164,-3.4406 -0.035,-5.1125 0.2832,-3.6516 1.4016,-7.2246 3.5137,-10.241 2.1218,-3.0325 4.8808,-4.4934 8.2402,-5.8703 0.8164,-0.336 1.6023,-0.4911 2.4852,-0.5508 5.7414,-0.3914 12.2277,2.5097 14.1671,8.2004 1.1817,3.4636 -0.3269,7.08 -2.8464,9.5664 -0.8735,0.8609 -2.2524,1.7879 -3.5707,1.6187 -4.1168,-0.5308 -2.6637,-5.5652 -2.6473,-5.6179 -0.4934,1.739 -1.9141,3.7746 -1.4238,5.6386 0.8308,3.1602 5.8769,3.8418 8.4406,2.8672 4.157,-1.5808 7.3457,-6.8867 7.4695,-11.2219 0.055,-1.9129 -0.9933,-4.5476 -1.7844,-6.2632 -0.8355,-1.8204 -2.0613,-3.3938 -3.5437,-4.7344 -2.8516,-2.5781 -6.4766,-4.6328 -10.2266,-5.5301 -2.5176,-0.6004 -5.6551,-0.4629 -8.2363,-0.4027 -8.6816,0.2054 -14.7938,7.0636 -17.3047,14.8789 -0.8816,2.7472 -1.5,5.7246 -1.7883,8.5976 -0.1179,1.1914 -0.3164,2.4278 -0.23,3.6289 0,0 1.6921,23.3465 26.3082,31.9075 l -53.702,15.1836 117.325,-0.3661 c 9.604,4.75394 24.43,9.10824 47.176,12.82426 17.163,1.86172 40.387,-6.29805 52.868,-16.99926 17.412,-0.991 30.912,-7.2597 30.808,-14.6437" />
      <path
         inkscape:connector-curvature="0"
         id="path4298"
         style="fill:#b0b3b3;fill-opacity:1;fill-rule:nonzero;stroke:none"
         d="m 2226.6064,561.12736 c 0,5.5039 -4.461,9.9652 -9.965,9.9652 -5.504,0 -9.966,-4.4613 -9.966,-9.9652 0,-5.504 4.462,-9.964 9.966,-9.964 5.504,0 9.965,4.46 9.965,9.964" />
      <path
         inkscape:connector-curvature="0"
         id="path4300"
         style="fill:#000000;fill-opacity:1;fill-rule:nonzero;stroke:none"
         d="m 2224.9174,559.60836 c 0.134,4.805 -3.838,8.8151 -8.875,8.9577 -5.036,0.1426 -9.227,-3.6367 -9.364,-8.4417 -0.134,-4.801 3.834,-8.815 8.871,-8.958 5.038,-0.143 9.231,3.641 9.368,8.442" />
      <path
         inkscape:connector-curvature="0"
         id="path4302"
         style="fill:#ffffff;fill-opacity:1;fill-rule:nonzero;stroke:none"
         d="m 2215.6654,557.83036 c 0.056,2.024 -1.539,3.711 -3.563,3.768 -2.025,0.058 -3.713,-1.536 -3.769,-3.56 -0.057,-2.025 1.537,-3.712 3.562,-3.769 2.024,-0.057 3.713,1.537 3.77,3.561" />
    </g>
  </g>
</svg>
