<?xml version="1.0" encoding="UTF-8" standalone="no"?>
<!-- Created with Inkscape (http://www.inkscape.org/) -->

<svg
   xmlns:dc="http://purl.org/dc/elements/1.1/"
   xmlns:cc="http://creativecommons.org/ns#"
   xmlns:rdf="http://www.w3.org/1999/02/22-rdf-syntax-ns#"
   xmlns:svg="http://www.w3.org/2000/svg"
   xmlns="http://www.w3.org/2000/svg"
   xmlns:sodipodi="http://sodipodi.sourceforge.net/DTD/sodipodi-0.dtd"
   xmlns:inkscape="http://www.inkscape.org/namespaces/inkscape"
   width="87.551544mm"
   height="44.782181mm"
   viewBox="0 0 310.22201 158.67702"
   id="svg2"
   version="1.1"
   inkscape:version="0.91 r13725"
   sodipodi:docname="Drop_lounging.svg">
  <defs
     id="defs4" />
  <sodipodi:namedview
     id="base"
     pagecolor="#ffffff"
     bordercolor="#666666"
     borderopacity="1.0"
     inkscape:pageopacity="0.0"
     inkscape:pageshadow="2"
     inkscape:zoom="0.24748737"
     inkscape:cx="-1503.3527"
     inkscape:cy="698.30489"
     inkscape:document-units="px"
     inkscape:current-layer="surface4447"
     showgrid="false"
     fit-margin-top="0"
     fit-margin-left="0"
     fit-margin-right="0"
     fit-margin-bottom="0"
     inkscape:window-width="1920"
     inkscape:window-height="1027"
     inkscape:window-x="1912"
     inkscape:window-y="-8"
     inkscape:window-maximized="1" />
  <metadata
     id="metadata7">
    <rdf:RDF>
      <cc:Work
         rdf:about="">
        <dc:format>image/svg+xml</dc:format>
        <dc:type
           rdf:resource="http://purl.org/dc/dcmitype/StillImage" />
        <dc:title></dc:title>
      </cc:Work>
    </rdf:RDF>
  </metadata>
  <g
     inkscape:label="Layer 1"
     inkscape:groupmode="layer"
     id="layer1"
     transform="translate(-2312.8517,-835.41805)">
    <g
       id="surface4447"
       transform="matrix(1.25,0,0,1.25,-237.10379,160.92352)">
      <g
         transform="matrix(1,0,0,-1,2039.9644,666.53636)"
         inkscape:label="ink_ext_XXXXXX"
         id="g4286">
        <g
           transform="scale(0.1,0.1)"
           id="g4288">
          <path
             inkscape:connector-curvature="0"
             id="path4290"
             style="fill:#4f4c4c;fill-opacity:1;fill-rule:nonzero;stroke:none"
             d="m 468.828,518.348 c -24.465,0.593 -34.797,-68.418 -34.797,-68.418 l 59.875,-30.453 c 0,0 -34.687,73.617 -25.078,98.871" />
          <path
             inkscape:connector-curvature="0"
             id="path4292"
             style="fill:#4f4c4c;fill-opacity:1;fill-rule:nonzero;stroke:none"
             d="m 558.605,473.297 c -23.664,1.301 -35.722,-65.203 -35.722,-65.203 l 57.051,-31.25 c 0,0 -31.387,72.285 -21.329,96.453" />
          <path
             inkscape:connector-curvature="0"
             id="path4294"
             style="fill:#4f4c4c;fill-opacity:1;fill-rule:nonzero;stroke:none"
             d="m 365.383,522.086 42.207,-49.238 c 0,0 4.844,99.715 19.82,126.511 -20.496,10.918 -62.027,-77.273 -62.027,-77.273" />
          <path
             inkscape:connector-curvature="0"
             id="path4296"
             style="fill:#100f0d;fill-opacity:1;fill-rule:nonzero;stroke:none"
             d="m 2481.77,319.078 c -0.88,61.152 -94.82,111.981 -226.09,130.488 0.29,2.157 0.62,4.297 0.86,6.465 42.36,283.778 -162.93,501.594 -162.93,501.594 166.56,62.135 437.5,168.335 269.26,141.675 -198.54,-31.45 -227.43,-29.49 -342.17,4.9 -0.02,0.39 -0.06,0.77 -0.04,1.2 2.62,9.21 153.69,10.77 153.69,10.77 0,0 12.36,2.01 5.43,9.74 -22.52,22.11 -162.81,14.27 -171.91,13.5 -9.11,-0.8 -15.98,6.6 -15.98,6.6 0,0 28.09,32.63 52.36,48.98 20.98,13.08 20.3,25.04 17.41,28.3 -2.84,3.22 -15.3,10.56 -22.27,5.17 -6.93,-5.4 -60.1,-37.62 -68.42,-45.44 -8.3,-7.82 -24.28,-7.75 -24.28,-7.75 0,0 6.76,11.03 20.22,16.75 13.44,5.69 41.52,30.13 47.15,34.93 5.58,4.76 3.59,12.33 -1.68,14.71 -5.33,2.34 -64.06,-19.53 -70.59,-24.73 -6.52,-5.21 -32.99,-26.03 -36.01,-23.47 -3.03,2.55 -2.46,4.33 -2.46,4.33 0,0 14.35,32.66 38.47,53.98 24.14,21.29 15.18,11.06 0.04,17.62 -7.5,1.1 -50.45,-50.49 -56.35,-56.4 -5.9,-5.92 -15.13,-12.73 -16.93,-10.29 -1.82,2.43 10.72,15.28 7.58,15.28 -3.19,-0.01 -11.45,-7.04 -23.67,-5.36 -12.25,1.66 -90.36,40.83 -158.64,-26.48 -52.54,-34.35 -65.04,-69.35 -153.38,-72.69 -31.66,11.67 -68.77,0.86 -113.45,-39.6 -42.52,19.78 -91.76,50.47 -106.29,90.8 -33.24,-32.56 13.9,-99.91 51.91,-143.97 -29.88,-31.11 -51.46,-56.399 -51.46,-56.399 0,0 24.53,-7.793 57.61,-15.258 -13.8,-4.308 -23.14,-7.621 -23.14,-7.621 0,0 14.51,-15.863 33.09,-31.547 l -7.97,-131.792 48.45,92.105 44.85,-126.852 -3.95,147.34 c 9.77,7.899 16.98,18.516 21.25,30.496 1.29,-9.652 -2.99,-38.949 4.48,-40.609 4.35,5.602 4.68,36.434 12.75,30.781 8.07,-5.676 -1.27,-30.652 24.06,-53.508 -11.13,31.989 -4.74,36.516 -4.74,36.516 0,0 2.59,10.398 8.55,-0.391 5.94,-10.8 9.12,-46.765 36.86,-52.668 -28.27,39.547 -12.02,42.528 -12.02,42.528 0,0 2.97,7.293 5.94,1.926 2.99,-5.403 32.85,-53.739 39.01,-51.629 6.15,2.097 -13.56,34.472 -1.8,37.48 11.76,2.973 36.17,-50.976 41.07,-46.914 4.92,4.055 -14.41,38.652 9.87,35.129 13.53,-7.57 30.72,-50.238 35.62,-48.418 4.86,1.773 -8.89,36.48 4.32,37.305 4.57,0.41 29.26,-54.828 33.98,-52.793 4.71,2.019 -5.9,24.722 2.01,30.133 5.71,1.742 25.36,-46.051 30.82,-42.657 5.45,3.391 -7.26,23.227 0.32,24.985 7.56,1.754 15.89,-9.297 20.82,-5.239 4.88,4.067 5.41,1.125 13.1,-13.125 7.68,-14.246 -2.85,-30.078 6.1,-35.41 11.83,12.805 20.99,22.641 20.99,22.641 0,0 -3.2,-57.727 3.34,-60.168 4.12,2.976 12.07,32.461 12.07,32.461 0,0 4.73,-13.723 9.36,-32.383 -31.06,-15.547 -58.48,-36.863 -80.84,-62.82 -19.08,2.976 -38.48,5.535 -58.15,7.617 C 1453.04,689.02 1171.96,634.867 1059.28,530.262 944.238,450.348 803.164,381.07 674.121,397.563 c -67.773,8.656 -140.769,21.718 -200.691,56.476 -33.481,19.402 -57.492,41.848 -78.457,74.238 -4.16,6.446 -7.512,12.879 -10.461,20 -6.028,14.602 -14.074,28.797 -17.364,44.383 -3.496,16.535 -1.64,34.406 -0.351,51.125 2.832,36.516 14.016,72.246 35.137,102.41 21.218,30.325 48.808,44.934 82.402,58.703 8.164,3.36 16.023,4.911 24.852,5.508 57.414,3.914 122.277,-25.097 141.671,-82.004 11.817,-34.636 -3.269,-70.8 -28.464,-95.664 -8.735,-8.609 -22.524,-17.879 -35.707,-16.187 -41.168,5.308 -26.637,55.652 -26.473,56.179 -4.934,-17.39 -19.141,-37.746 -14.238,-56.386 8.308,-31.602 58.769,-38.418 84.406,-28.672 41.57,15.808 73.457,68.867 74.695,112.219 0.547,19.129 -9.933,45.476 -17.844,62.632 -8.355,18.204 -20.613,33.938 -35.437,47.344 -28.516,25.781 -64.766,46.328 -102.266,55.301 -25.176,6.004 -56.551,4.629 -82.363,4.027 -86.816,-2.054 -147.938,-70.636 -173.047,-148.789 -8.816,-27.472 -15,-57.246 -17.883,-85.976 -1.179,-11.914 -3.164,-24.278 -2.3,-36.289 0,0 16.921,-233.465 263.082,-319.075 L 0,127.23 l 1173.25,3.661 c 96.04,-47.5394 244.3,-91.0824 471.76,-128.24256 171.63,-18.61724 403.87,62.98046 528.68,169.99256 174.12,9.91 309.12,72.597 308.08,146.437" />
          <path
             inkscape:connector-curvature="0"
             id="path4298"
             style="fill:#4f4c4c;fill-opacity:1;fill-rule:nonzero;stroke:none"
             d="m 1866.42,1054.09 c 0,-55.039 -44.61,-99.652 -99.65,-99.652 -55.04,0 -99.66,44.613 -99.66,99.652 0,55.04 44.62,99.64 99.66,99.64 55.04,0 99.65,-44.6 99.65,-99.64" />
          <path
             inkscape:connector-curvature="0"
             id="path4300"
             style="fill:#ffffff;fill-opacity:1;fill-rule:nonzero;stroke:none"
             d="m 1849.53,1069.28 c 1.34,-48.05 -38.38,-88.151 -88.75,-89.577 -50.36,-1.426 -92.27,36.367 -93.64,84.417 -1.34,48.01 38.34,88.15 88.71,89.58 50.38,1.43 92.31,-36.41 93.68,-84.42" />
          <path
             inkscape:connector-curvature="0"
             id="path4302"
             style="fill:#100f0d;fill-opacity:1;fill-rule:nonzero;stroke:none"
             d="m 1757.01,1087.06 c 0.56,-20.24 -15.39,-37.11 -35.63,-37.68 -20.25,-0.58 -37.13,15.36 -37.69,35.6 -0.57,20.25 15.37,37.12 35.62,37.69 20.24,0.57 37.13,-15.37 37.7,-35.61" />
        </g>
      </g>
    </g>
  </g>
</svg>
